<svg width="8" height="7" viewBox="0 0 8 7" fill="none" xmlns="http://www.w3.org/2000/svg">
<path fill-rule="evenodd" clip-rule="evenodd" d="M0.96967 0.46967C1.26256 0.176777 1.73744 0.176777 2.03033 0.46967L4 2.43934L5.96967 0.469676C6.26256 0.176783 6.73744 0.176783 7.03033 0.469676C7.32322 0.762569 7.32322 1.23744 7.03033 1.53034L5.06066 3.5L7.03033 5.46967C7.32322 5.76256 7.32322 6.23744 7.03033 6.53033C6.73744 6.82322 6.26256 6.82322 5.96967 6.53033L4 4.56066L2.03033 6.53033C1.73744 6.82323 1.26256 6.82323 0.969671 6.53033C0.676778 6.23744 0.676778 5.76256 0.969671 5.46967L2.93934 3.5L0.96967 1.53033C0.676777 1.23744 0.676777 0.762563 0.96967 0.46967Z" fill="white"/>
</svg>
